<svg width="25" height="24" viewBox="0 0 25 24" fill="none" xmlns="http://www.w3.org/2000/svg">
<path d="M19.1106 5.03584C24.3066 10.2304 25.7106 17.2505 22.2468 20.7128C18.783 24.1766 11.7644 22.7726 6.56912 17.578C6.39265 17.4015 6.23171 17.218 6.06371 17.0373L9.1816 13.9194C13.2221 17.9599 18.3694 19.3646 20.6776 17.0549C22.9866 14.746 21.5826 9.59867 17.5428 5.5582L17.5583 5.57302L17.5435 5.55749C12.9263 0.9396 6.60865 -0.23005 3.43429 2.94431C1.899 4.47961 1.38935 6.75114 1.78394 9.20761C1.17829 6.32549 1.67805 3.65513 3.43429 1.8996C6.89736 -1.56346 13.916 -0.159462 19.1106 5.03584Z" fill="#FDD888"/>
<path d="M12.4311 24.0001C12.2532 24.0001 12.076 23.9457 11.9235 23.837L8.34048 21.2669L4.75741 23.837C4.45177 24.0558 4.04235 24.0558 3.73882 23.8335C3.43529 23.6133 3.30753 23.2236 3.42118 22.8671L4.75812 18.5542L1.20682 16.0518C0.904701 15.8295 0.779759 15.4384 0.894818 15.0812C1.01129 14.7255 1.34235 14.4834 1.71717 14.4805L6.05624 14.4721L7.5153 10.2671C7.63389 9.91135 7.96636 9.67135 8.34118 9.67135C8.71601 9.67135 9.04848 9.91135 9.16707 10.2671L10.4842 14.4721L14.9645 14.4805C15.34 14.4834 15.6718 14.7255 15.7868 15.0812C15.9026 15.4384 15.777 15.8295 15.4748 16.0518L11.9235 18.5542L13.2598 22.8671C13.3741 23.2236 13.245 23.614 12.9428 23.8335C12.7897 23.945 12.6104 24.0001 12.4311 24.0001Z" fill="#FFAC33"/>
</svg>
